<?xml version="1.0" encoding="UTF-8"?><svg id="a" xmlns="http://www.w3.org/2000/svg" width="300" height="300" xmlns:xlink="http://www.w3.org/1999/xlink" viewBox="0 0 300 300"><defs><style>.c{fill:none;}.d{fill:#f2e5cc;}.e{fill:#f2e3c7;}.f{fill:#f5ebd6;}.g{fill:#f5edd9;}.h{fill:#e8d1a3;}.i{fill:#eddeba;}.j{fill:#e3c78c;}.k{fill:#fff;}.l{fill:#e5cc99;}.m{fill:red;}.n{fill:#faf2e5;}.o{fill:#ebd4a8;}.p{fill:#eddbb8;}.q{fill:#deba75;}.r{fill:#cc942b;}.s{fill:#d4a852;}.t{fill:#e0bf80;}.u{fill:#dbb56b;}.v{fill:#d67321;}.w{clip-path:url(#b);}</style><clipPath id="b"><rect class="c" x="30.2875" width="239.425" height="300"/></clipPath></defs><g class="w"><path class="r" d="M158.2791,300h-15.304c-.381-.244-.804-.065-1.204-.12h-2.369c-5.688-.046-11.236-1.108-16.742-2.4-12.638-2.963-24.458-7.933-35.492-14.757-6.384-3.949-12.335-8.476-17.891-13.547-8.874-8.099-16.349-17.32-22.442-27.658-7.55-12.809-12.61-26.54-15.032-41.233-.753-4.569-1.232-9.156-1.215-13.792,.07-1.88-.094-3.753-.12-5.63,0-59.774,0-119.547,.007-179.32,0-.509-.124-1.036,.113-1.531h238.883c.237,.495,.113,1.022,.113,1.531,.006,60.153,.006,120.306,.006,180.458v3.38c.231,12.41-2.397,24.298-6.534,35.914-3.963,11.13-9.492,21.427-16.537,30.895-4.362,5.86-9.172,11.322-14.547,16.3-7.087,6.564-14.793,12.235-23.201,16.972-8.41,4.738-17.278,8.355-26.572,10.937-5.111,1.42-10.291,2.515-15.559,3.151-1.735,.209-3.488,.21-5.231,.33h-1.677c-.482,.061-.986-.133-1.453,.12"/><path class="j" d="M269.507,182.2181c-.012-.916-.034-1.833-.035-2.749-.001-59.819-.001-119.638-.001-179.457,.074,.052,.249-.121,.242,.12-.011,.319-.003,.638-.003,.957V182.2071c-.063,.092-.13,.1-.203,.011"/><path class="p" d="M30.5877,.0121c.017,.477,.05,.955,.05,1.432,.002,59.418,.002,118.835,0,178.253,0,.437-.026,.875-.041,1.313-.082,.154-.165,.154-.248,0,0-59.973-.001-119.947,.015-179.921,0-.35-.276-.811,.224-1.077"/><path class="i" d="M30.3486,181.0104h.249c.109,1.916,.313,3.829,.196,5.753-.257-.347-.169-.758-.21-1.145-.045-.425,.064-.879-.235-1.256v-3.352Z"/><path class="e" d="M269.7101,185.5593l-.098,.021-.1-.007c-.093-.639-.042-1.28-.004-1.92,.06-.163,.127-.167,.202-.009v1.915Z"/><path class="o" d="M269.7101,183.6439c-.067,.008-.134,.011-.202,.01,0-.479-.001-.957-.001-1.436,.068,0,.135-.004,.203-.01v1.436Z"/><path class="u" d="M158.2791,300c.444-.359,.96-.228,1.459-.213,.077,.057,.1,.107,.067,.151-.031,.041-.061,.062-.091,.062h-1.435Z"/><path class="s" d="M141.7649,299.7792c.416,.004,.856-.12,1.21,.221h-1.195c-.094-.043-.127-.09-.1-.141,.027-.053,.056-.08,.085-.08"/><path class="f" d="M139.3884,300c-.002-.072-.004-.143-.006-.215,.316,.003,.633,.005,.949,.007,.166,.059,.17,.128,.013,.208h-.956Z"/><path class="i" d="M159.7138,300c-.002-.072,.006-.143,.024-.213h.941c.091,.051,.12,.099,.087,.146-.031,.044-.063,.067-.096,.067h-.956Z"/><path class="h" d="M140.3449,300c.001-.07-.003-.139-.013-.208,.238-.001,.477-.003,.716-.005,.166,.06,.171,.131,.014,.213h-.717Z"/><path class="q" d="M141.0622,300c0-.071-.004-.142-.015-.213,.24-.003,.479-.005,.718-.008,.008,.074,.013,.147,.014,.221h-.717Z"/><path class="n" d="M160.6703,300c-.002-.071,.001-.143,.008-.213,.238-.002,.475-.003,.713-.005-.002,.073-.003,.145-.004,.218h-.717Z"/><path class="k" d="M85.7013,271.7506c-1.108-.565-2.049-1.372-3.022-2.125-21.056-16.3-34.877-37.344-41.245-63.24-1.506-6.125-2.403-12.357-2.77-18.661-.437-7.495-.142-14.995-.221-22.492-.002-.159,.026-.318,.041-.477,.282-.668,.709-1.221,1.216-1.746,5.672-5.874,11.364-11.729,17.056-17.583,5.054-5.197,10.091-10.411,15.132-15.621,5.318-5.496,10.65-10.979,15.968-16.475,4.459-4.608,8.872-9.261,13.383-13.819,.424-.428,.782-1.06,1.567-.901,.524,.416,.585,1.035,.648,1.619,.618,5.792,2.602,11.17,5.054,16.381,3.956,8.409,9.057,16.111,14.679,23.484,2.321,3.044,4.734,6.009,7.202,8.934,.694,.822,1.43,1.112,2.466,1.11,9.641-.024,19.283-.015,28.924-.015,2.191,0,4.387-.079,6.572,.029,1.378,.068,2.328-.467,3.241-1.404,2.239-2.297,4.12-4.864,5.84-7.555,4.604-7.206,8.262-14.836,10.118-23.236,1.184-5.357,1.465-10.771,1.183-16.267-.377-7.35-1.813-14.542-2.823-21.798-1.046-7.519-.496-14.869,2.297-21.969,1.313-3.339,3.294-6.273,5.837-8.816,1.603-1.603,3.209-3.203,4.949-4.963-1.05-.176-1.893,.108-2.727,.184-3.904,.357-7.706,1.186-11.37,2.614-4.325,1.685-7.612,4.729-10.627,8.122-1.856,2.089-3.478,4.36-5.03,6.682-.264,.395-.544,.858-1.105,.777-.557-.081-.715-.6-.855-1.052-2.103-6.742-2.71-13.506-.261-20.307,.054-.152,.133-.289,.219-.421,.102-.243,.316-.428,.356-.583-.014,.107-.182,.252-.291,.432-1.56,1.414-3.291,2.61-4.829,4.067-2.677,2.537-4.432,5.597-5.725,8.981-.568,1.488-1.194,2.954-1.668,4.478-.106,.342-.236,.679-.469,.961-.388,.47-.724,.426-.986-.121-.174-.363-.244-.758-.323-1.148-.596-2.97-.883-5.983-1.198-8.991-.062-.593-.061-1.195,.13-1.776,.202-.44,.518-.805,.86-1.132,2.504-2.395,4.762-5.028,7.219-7.465,4.183-4.148,8.213-8.445,12.33-12.656,5.09-5.206,10.073-10.518,15.234-15.655,.763-.759,1.183-1.959,2.483-2.086,.399-.254,.847-.183,1.28-.183,22.994-.002,45.988-.002,68.981-.002,.12,0,.239-.003,.359,.001q.887,.029,.911,.962c.007,.279,.002,.559,.002,.838,0,26.214,0,52.428-.003,78.642,0,.557-.04,1.114-.062,1.672-.289,.662-.7,1.225-1.208,1.752-5.754,5.96-11.536,11.891-17.307,17.834-5.077,5.228-10.143,10.467-15.213,15.703-5.208,5.378-10.426,10.747-15.63,16.13-5.065,5.24-10.14,10.47-15.21,15.706-5.209,5.378-10.367,10.805-15.647,16.114-.591,.594-1.05,1.305-1.657,1.884-.431,.41-.83,.876-1.493,.91-.686-.041-1.157-.5-1.668-.87-1.65-1.193-3.363-2.276-5.164-3.23-.856-.454-1.349-.326-1.78,.568-.849,1.76-1.581,3.575-2.513,5.295-.713,1.316-1.007,1.459-2.362,.9-2.362-.975-4.771-1.784-7.272-2.327-1.295-.282-1.59-.733-1.394-2.041,.296-1.971,.708-3.923,1.006-5.893,.183-1.21,.045-1.368-1.181-1.521-4.003-.501-8.006-.499-12.009,.002-1.207,.151-1.32,.318-1.11,1.561,.318,1.886,.687,3.765,.984,5.655,.236,1.495-.074,1.955-1.556,2.275-2.305,.499-4.529,1.237-6.702,2.149-1.641,.688-2.135,.474-2.891-1.148-.792-1.699-1.676-3.352-2.484-5.043-.348-.728-.783-.901-1.512-.511-3.745,2.008-7.183,4.429-10.173,7.469-.539,.548-.506,.962,.007,1.513,1.307,1.404,2.867,2.532,4.175,3.934,1.188,1.273,1.259,1.754,.139,3.059-1.589,1.85-3.022,3.805-4.281,5.894-.653,1.084-1.203,1.226-2.41,.676-1.778-.81-3.422-1.88-5.192-2.707-1.18-.552-1.245-.555-1.819,.599-1.826,3.667-2.988,7.551-3.768,11.563-.182,.935,.147,1.29,1.064,1.417,1.971,.273,3.949,.507,5.907,.87,1.388,.257,1.62,.513,1.532,1.913-.165,2.625-.19,5.244,.04,7.867,.099,1.126-.223,1.52-1.345,1.713-2.04,.35-4.095,.611-6.145,.89-.938,.128-1.188,.505-1.025,1.428,.712,4.033,1.957,7.889,3.731,11.574,.54,1.12,.686,1.164,1.838,.589,1.782-.889,3.507-1.89,5.286-2.787,1.177-.594,1.622-.533,2.237,.626,.878,1.656,2.221,3.015,2.948,4.758,.006,.437-.248,.754-.531,1.031-1.053,1.033-1.952,2.213-3.002,3.238-4.3,4.202-8.38,8.618-12.584,12.912-5.596,5.715-11.087,11.533-16.731,17.202-.645,.648-1.147,1.428-1.826,2.049-.352,.323-.678,.691-1.226,.627"/><path class="m" d="M178.59,175.8028c14.228-14.683,28.457-29.366,42.684-44.05,13.174-13.597,26.345-27.195,39.52-40.791,.331-.341,.689-.655,1.034-.982,.019,.517,.053,1.035,.053,1.553,.003,29.523-.033,59.046,.018,88.569,.023,13.132-2.094,25.874-6.505,38.234-4.234,11.865-10.328,22.689-18.221,32.503-7.076,8.797-15.29,16.357-24.647,22.654-11.871,7.988-24.796,13.517-38.799,16.499-5.031,1.071-10.106,1.778-15.236,2.167-4.976,.378-9.953,.416-14.922,.117-9.459-.569-18.713-2.304-27.735-5.248-10.413-3.397-20.125-8.201-29.127-14.443-.359-.249-.752-.458-1.005-.834,3.424-3.553,6.842-7.113,10.275-10.658,8.473-8.748,16.953-17.489,25.431-26.233,1.295,.153,1.792,1.213,2.272,2.17,.447,.892-.295,1.504-.876,2.032-1.387,1.26-2.767,2.524-4.079,3.864-.56,.572-.607,1.014-.019,1.602,3.042,3.047,6.547,5.45,10.303,7.513,.663,.364,1.014,.114,1.307-.493,.797-1.652,1.672-3.265,2.395-4.954,.891-2.083,1.164-2.171,3.208-1.299,2.095,.893,4.268,1.543,6.479,2.084,1.586,.388,1.832,.78,1.582,2.369-.297,1.891-.631,3.776-1,5.654-.172,.879,.015,1.341,.979,1.45,4.133,.466,8.261,.476,12.393-.008,.904-.106,1.206-.476,1.012-1.422-.4-1.952-.734-3.919-1.039-5.89-.21-1.357,.026-1.759,1.331-2.083,2.558-.636,5.06-1.421,7.487-2.46,1.051-.449,1.495-.265,2.04,.775,.907,1.731,1.788,3.474,2.564,5.271,.59,1.367,.784,1.448,2.032,.747,3.416-1.92,6.651-4.098,9.437-6.886,1.149-1.15,1.153-1.17-.036-2.35-1.273-1.263-2.498-2.574-3.869-3.739-1.042-.885-1.124-1.501-.219-2.548,1.753-2.029,3.309-4.187,4.694-6.482,.549-.909,1.123-1.01,2.146-.458,1.648,.889,3.32,1.734,4.956,2.647,1.435,.8,1.556,.747,2.248-.688,1.76-3.651,2.956-7.485,3.67-11.475,.14-.781-.004-1.168-.885-1.281-2.053-.265-4.106-.546-6.149-.884-1.306-.217-1.614-.489-1.483-1.825,.26-2.632,.235-5.246-.004-7.876-.118-1.299,.176-1.573,1.515-1.812,2.039-.365,4.096-.619,6.149-.894,.796-.106,.999-.453,.863-1.2-.744-4.064-1.909-7.99-3.765-11.691-.605-1.205-.709-1.231-1.915-.655-1.763,.842-3.41,1.905-5.185,2.726-1.198,.555-1.597,.49-2.281-.619-1.343-2.178-2.842-4.234-4.484-6.196-.991-1.183-.961-1.689,.192-2.737,1.417-1.288,2.803-2.603,4.162-3.952,.611-.607,.666-1.08,.017-1.69-.784-.736-1.536-1.506-2.359-2.203-.359-.305-.733-.643-.604-1.211"/><path class="m" d="M190.3599,8.0493c-7.46,7.708-14.919,15.418-22.38,23.125-4.854,5.014-9.711,10.026-14.569,15.036-.275,.284-.578,.542-.868,.813-.724-.403-.674-1.125-.7-1.79-.187-4.659,.396-9.223,1.629-13.72,1.16-4.234,2.522-8.397,4.206-12.669-.992,.326-1.78,.711-2.551,1.154-6.14,3.529-10.716,8.642-14.377,14.582-5.967,9.681-9.501,20.244-10.875,31.526-.158,1.298-.355,2.607-.309,3.93,.019,.559-.032,1.121-.364,1.608-2.138,2.634-4.605,4.954-7.004,7.34-.418,.416-.793,1.076-1.591,.712-.592-.585-.584-1.376-.685-2.11-.765-5.53-.421-11,.931-16.41,.039-.154,.136-.287,.189-.433,.024-.079,.076-.151,.078-.222-3.204,3.082-6.095,6.416-8.683,10.005-4.928,6.837-8.251,14.328-9.117,22.796-.126,1.23-.019,2.469-.069,3.702-.024,.578,.074,1.227-.588,1.577-21.103,21.784-42.206,43.567-63.311,65.348-.274,.283-.502,.621-.868,.806-.014-.558-.04-1.116-.04-1.674-.002-51.146-.002-102.293,.001-153.439,0-1.98-.215-1.77,1.81-1.77,49.49-.003,98.98-.003,148.47,.004,.545,0,1.118-.144,1.635,.173"/><path class="r" d="M102.6625,98.6013c.13-.343,.135-.699,.123-1.059-.25-7.614,1.87-14.624,5.478-21.232,3.327-6.094,7.592-11.462,12.719-16.141,.145-.133,.314-.241,.471-.361,.145,.187,.139,.383,.034,.584-.399,1.986-.883,3.956-1.111,5.976-.508,4.492-.559,8.965,.492,13.399,.5,.201,.501,.689,.591,1.097,1.573,7.147,5.178,13.242,9.707,18.863,1.977,2.454,4.223,4.663,6.33,6.974-.058-.075-.112-.129-.166-.193-1.391-1.301-1.981-3.072-2.733-4.722-3.011-6.599-4.855-13.528-5.687-20.735-.311-2.696-.289-5.397-.294-8.101-.001-.494,.189-.93,.288-1.394,.105-.301,.17-.606,.181-.931,.245-7.189,1.749-14.133,4.078-20.917,2.132-6.211,4.849-12.136,8.605-17.546,3.07-4.421,6.661-8.339,11.163-11.353,1.426-.955,2.905-1.816,4.513-2.433,.285-.11,.557-.302,.982-.179-.358,.932-.718,1.846-1.061,2.764-1.847,4.932-3.465,9.937-4.448,15.117-.687,3.618-.841,7.276-.374,10.945-.088,2.084,.275,4.133,.516,6.188,.232,1.976,.539,3.945,.974,5.905,.362-.074,.35-.385,.431-.624,.642-1.886,1.378-3.736,2.074-5.602,1.698-4.553,4.623-8.146,8.448-11.057,.759-.578,1.559-1.103,2.34-1.653,.245-.025,.371,.069,.334,.33-.485,1.932-1.16,3.818-1.477,5.789-.539,3.344-.371,6.679,.301,9.988,.374,1.835,.816,3.656,1.349,5.453,.068,.228,.094,.473,.339,.677,.353-.192,.475-.583,.676-.897,2.069-3.235,4.416-6.246,7.108-8.991,3.367-3.435,7.32-5.849,11.969-7.134,3.935-1.087,7.937-1.666,12.004-1.817,.181,.476-.214,.598-.412,.793-1.619,1.594-3.273,3.153-4.879,4.76-4.623,4.627-7.144,10.289-8.132,16.694-.56,3.639-.828,7.291-.462,10.967,.308,3.096,.786,6.168,1.295,9.236,.952,5.745,1.729,11.509,1.97,17.338,.42,10.192-1.864,19.779-6.31,28.903-2.541,5.215-5.48,10.178-9.138,14.694-.879,1.086-1.823,2.111-2.848,3.063-.459,.426-.938,.645-1.595,.644-12.472-.018-24.943-.015-37.415-.004-.558,0-.968-.14-1.345-.581-8.143-9.501-15.579-19.496-21.314-30.671-2.463-4.8-4.504-9.769-5.698-15.057-.369-1.637-.592-3.294-.788-4.957-.032-.274-.007-.563-.196-.799"/><path class="r" d="M178.59,175.8028c.314,.304,.609,.632,.947,.906,.964,.778,1.852,1.636,2.731,2.505,.803,.796,.806,.811,.022,1.574-1.544,1.5-3.099,2.989-4.648,4.483-.201,.193-.391,.399-.6,.583-.334,.297-.346,.561-.03,.904,2.036,2.205,3.814,4.604,5.265,7.235,.28,.507,.537,.55,1.035,.276,1.779-.98,3.585-1.913,5.381-2.863,.282-.149,.564-.298,.847-.445,1.085-.561,1.105-.57,1.652,.581,.548,1.151,1.086,2.31,1.562,3.492,1.196,2.968,2.035,6.041,2.568,9.195,.208,1.229,.155,1.263-1.034,1.427-2.287,.315-4.572,.639-6.856,.964-.8,.115-.829,.125-.735,.982,.312,2.866,.309,5.729-.003,8.595-.09,.836-.059,.84,.777,.956,2.365,.329,4.73,.654,7.094,.987,.877,.124,.928,.16,.789,1.071-.722,4.731-2.22,9.21-4.378,13.476-.306,.605-.64,.555-1.142,.283-2.066-1.122-4.145-2.218-6.22-3.324-.968-.516-.975-.52-1.523,.453-1.355,2.41-3.01,4.599-4.841,6.663-.639,.719-.63,.741,.06,1.411,1.689,1.637,3.39,3.26,5.074,4.902,.674,.656,.67,.683,.041,1.32-3.335,3.374-7.138,6.109-11.357,8.266-.792,.405-.816,.394-1.225-.439-1.056-2.146-2.091-4.303-3.147-6.45-.389-.789-.42-.814-1.142-.48-2.616,1.21-5.349,2.053-8.155,2.683-.866,.195-.866,.223-.704,1.14,.409,2.315,.825,4.628,1.236,6.943,.168,.951,.162,.964-.829,1.118-4.639,.723-9.278,.72-13.917-.003-.932-.145-.933-.152-.76-1.139,.401-2.276,.807-4.551,1.203-6.827,.172-.986,.139-1.054-.858-1.275-2.77-.613-5.471-1.435-8.026-2.679-.594-.289-.836-.103-1.087,.425-1.026,2.16-2.078,4.309-3.13,6.457-.457,.933-.474,.94-1.397,.463-4.135-2.14-7.873-4.83-11.163-8.134-.701-.704-.708-.725-.016-1.399,1.685-1.642,3.388-3.263,5.073-4.904,.688-.67,.684-.69,.053-1.426-.545-.635-1.112-1.251-1.669-1.875-1.178-1.655-2.406-3.279-3.343-5.09-.265-.513-.532-.572-1.028-.299-1.921,1.053-3.861,2.069-5.793,3.099-.176,.094-.351,.189-.529,.279-.894,.45-.89,.786-1.549-.542-1.689-3.408-2.96-6.962-3.745-10.686-.165-.779-.331-1.56-.448-2.347-.144-.965-.097-1.007,.856-1.142,2.324-.328,4.65-.653,6.975-.976,.949-.132,.942-.128,.837-1.115-.294-2.785-.288-5.572,.002-8.357,.098-.938,.105-.939-.863-1.076-2.285-.323-4.571-.644-6.856-.968-1.059-.15-1.121-.208-.937-1.3,.772-4.591,2.192-8.972,4.3-13.124,.415-.818,.433-.823,1.225-.405,2.078,1.096,4.148,2.206,6.226,3.303,.94,.497,.955,.496,1.45-.376,1.365-2.402,2.991-4.612,4.836-6.664,.696-.773,.695-.786-.022-1.483-1.687-1.638-3.384-3.266-5.07-4.906-.685-.667-.684-.683,.018-1.381,3.329-3.316,7.083-6.049,11.268-8.184,.839-.428,.852-.423,1.289,.468,1.036,2.11,2.058,4.227,3.096,6.337,.423,.861,.44,.866,1.327,.466,2.513-1.135,5.116-1.984,7.815-2.549,1.07-.224,1.064-.245,.872-1.337-.402-2.275-.803-4.551-1.202-6.827-.161-.919-.16-.935,.692-1.073,4.717-.762,9.435-.758,14.151,.004,.832,.135,.836,.154,.688,.997-.405,2.315-.815,4.629-1.227,6.943-.186,1.046-.195,1.067,.779,1.271,2.816,.59,5.541,1.458,8.14,2.697,.531,.253,.763,.135,1.002-.368,1.026-2.159,2.082-4.304,3.135-6.451,.155-.315,.254-.674,.606-.935,2.297,1.094,4.461,2.42,6.541,3.896,.549,.39,1.028,.886,1.668,1.144"/><path class="r" d="M150.2738,152.9805h18.398c.279,0,.558-.007,.836,.002,.854,.026,.874,.028,.883,.87,.016,1.515,.005,3.03,.006,4.545,0,1.476,.005,2.951-.002,4.426-.006,1.134-.013,1.138-1.098,1.148-.677,.007-1.357,.041-2.03-.01-.645-.049-.995,.169-1.276,.779-1.119,2.438-2.023,4.937-2.428,7.6-.024,.157-.037,.317-.07,.473-.221,1.047-.725,1.224-1.544,.527-.512-.436-.747-1.029-.816-1.679-.156-1.466-.29-2.934-.432-4.401-.019-.199-.018-.399-.044-.596-.279-2.074-.511-2.763-2.975-2.72-5.215,.093-10.433,.027-15.65,.029-1.504,.001-1.94,.368-2.223,1.889-.255,1.374-.294,2.772-.405,4.162-.054,.677-.119,1.35-.273,2.011-.111,.472-.313,.905-.676,1.242-.333,.308-.734,.55-1.181,.428-.415-.114-.374-.593-.423-.916-.413-2.783-1.287-5.414-2.468-7.961-.294-.636-.625-.924-1.334-.869-.752,.059-1.513-.006-2.269,.019-.531,.017-.811-.137-.808-.732,.015-3.19,.013-6.379,.003-9.569-.002-.507,.197-.733,.707-.698,.277,.019,.557,.001,.836,.001h18.756"/><path class="t" d="M167.66,40.5102c-.111-.11-.222-.22-.333-.33,.104-.184,.267-.355,.45-.178,.16,.154,.048,.365-.117,.508"/><path class="k" d="M128.9044,71.5566c.241,.41,.115,.858,.112,1.287-.089,11.033,2.305,21.487,7.275,31.342,.448,.887,.939,1.753,1.409,2.628,.079,.047,.107,.097,.085,.15-.023,.055-.047,.082-.071,.082-.255-.038-.416-.225-.588-.385-5.543-5.133-10.189-10.945-13.426-17.819-1.174-2.493-2.041-5.095-2.661-7.779-.097-.423-.116-.864-.171-1.296,2.341-2.404,4.683-4.809,7.026-7.212,.331-.338,.673-.666,1.01-.998"/><path class="v" d="M121.4875,60.3921c-.011-.194-.023-.389-.034-.583,.317,.106,.317,.11,.034,.583"/><path class="k" d="M167.8431,88.3573c5.034,7.701,7.278,16.071,6.3,25.299-.62,5.845-2.945,10.934-6.293,15.644-.23,.053-.348-.003-.26-.264,.757-2.885,1.52-5.767,2.048-8.708,1.044-5.809,1.154-11.63,.461-17.487-.566-4.79-1.511-9.507-2.533-14.213-.072-.259,.048-.321,.277-.271"/><path class="k" d="M145.7324,148.681c.03-.342,.039-.537,.064-.73,.707-5.463-.303-10.631-2.694-15.553-2.428-4.998-5.801-9.324-9.578-13.354-1.718-1.834-3.37-3.721-4.821-5.777-.343-.487-.658-.992-1.066-1.609,.584,.028,.886,.349,1.22,.571,3.516,2.329,6.466,5.286,9.299,8.379,2.318,2.533,4.464,5.188,6.326,8.084,1.822,2.835,2.952,5.901,3.469,9.21,.506,3.234,.794,6.487,.792,9.762-.001,.995-.008,1.001-.965,1.015-.667,.01-1.334,.002-2.046,.002"/><path class="p" d="M167.8431,88.3573c-.092,.09-.184,.18-.277,.271-.058-.101-.138-.195-.171-.303-.045-.148-.111-.36,.043-.436,.165-.081,.246,.13,.33,.248,.043,.061,.051,.146,.075,.22"/><path class="g" d="M167.5898,129.0361c.087,.088,.174,.176,.261,.265-.082,.158-.164,.316-.246,.475-.094,.097-.189,.098-.283,0,.026-.269,.058-.537,.268-.74"/><path class="l" d="M167.3214,129.7764c.095,0,.189,0,.284-.001-.049,.184-.15,.4-.34,.335-.18-.062-.067-.235,.056-.334"/><path class="d" d="M137.714,107.0453c-.028-.076-.032-.153-.013-.231,.126,.07,.257,.184,.178,.316-.083,.138-.141,.012-.165-.085"/><path class="k" d="M176.4183,222.1521c-5.947-3.438-11.759-6.799-17.77-10.274,5.999-3.465,11.809-6.821,17.758-10.258,2.579,6.847,2.567,13.578,.012,20.532"/><path class="k" d="M141.6892,211.8784c-6.051,3.497-11.863,6.856-17.771,10.27-2.562-6.914-2.57-13.658,.004-20.53,5.917,3.417,11.734,6.776,17.767,10.26"/><path class="k" d="M154.4942,239.7475v-20.463c5.92,3.419,11.731,6.775,17.683,10.213-4.671,5.631-10.476,9.028-17.683,10.25"/><path class="k" d="M145.6993,219.3646c.306,.434,.201,.801,.201,1.143,.008,5.978,.006,11.957,.006,17.935,0,.159,.005,.319-.002,.478-.036,.778-.092,.849-.829,.705-6.694-1.306-12.245-4.563-16.63-9.799-.072-.086-.095-.213-.173-.395,5.813-3.358,11.621-6.713,17.427-10.067"/><path class="k" d="M154.5778,204.4256c-.214-.455-.153-.778-.153-1.091-.004-6.019-.003-12.038-.003-18.057,0-.239,.007-.478,.006-.717-.003-.357,.168-.512,.52-.449,.43,.076,.863,.144,1.289,.24,6.19,1.394,11.328,4.536,15.458,9.346,.126,.148,.228,.316,.422,.589-5.85,3.382-11.652,6.736-17.539,10.139"/><path class="k" d="M128.1606,194.2599c.538-.617,.963-1.137,1.422-1.624,4.141-4.388,9.169-7.186,15.071-8.413,.233-.048,.471-.073,.706-.111,.341-.054,.534,.073,.538,.436,.002,.159,.008,.318,.008,.477,0,6.214,0,12.429-.002,18.643,0,.195-.029,.39-.062,.801-5.908-3.412-11.707-6.76-17.681-10.209"/><path class="r" d="M161.9222,211.7813c4.524-2.615,9.016-5.21,13.635-7.879,1.629,5.358,1.585,10.546,.086,15.757-.9-.211-12.708-6.986-13.721-7.878"/><path class="r" d="M124.773,219.8598c-1.621-5.368-1.617-10.574-.001-15.961,4.626,2.674,9.116,5.269,13.803,7.978-4.681,2.708-9.172,5.305-13.802,7.983"/><path class="r" d="M169.7621,229.9004c-2.468,2.672-5.224,4.654-8.348,6.134-1.477,.7-3.014,1.243-4.595,1.651-.757,.195-.874,.113-.875-.62-.008-4.898,0-9.797,.007-14.696,.001-.065,.066-.13,.182-.344,4.494,2.596,8.984,5.191,13.629,7.875"/><path class="r" d="M130.5582,229.9112c4.639-2.682,9.11-5.267,13.599-7.862,.274,.879,.349,14.132,.094,15.79-5.334-1.201-9.789-3.845-13.693-7.928"/><path class="r" d="M169.6515,193.9263c-4.489,2.593-8.986,5.19-13.454,7.771-.375-.275-.254-.576-.255-.83-.008-4.58-.008-9.161-.004-13.741,.001-1.254,.024-1.275,1.169-.963,4.633,1.26,8.636,3.604,12.01,7.023,.139,.141,.275,.286,.402,.439,.047,.056,.063,.14,.132,.301"/><path class="r" d="M130.566,193.862c2.507-2.697,5.29-4.703,8.461-6.181,1.446-.673,2.944-1.201,4.486-1.597,.75-.193,.866-.11,.868,.625,.007,4.898-.001,9.795-.009,14.693,0,.065-.066,.129-.174,.327-4.495-2.594-8.988-5.187-13.632-7.867"/></g></svg>